<svg width="1000" height="1000" viewBox="0 0 1000 1000" fill="none" xmlns="http://www.w3.org/2000/svg">
<path d="M500 1000C776.142 1000 1000 776.142 1000 500C1000 223.858 776.142 0 500 0C223.858 0 0 223.858 0 500C0 776.142 223.858 1000 500 1000Z" fill="black"/>
<g filter="url(#filter0_f_24_144)">
<circle cx="635.5" cy="364.5" r="42.5" fill="#EEEEEE"/>
<circle cx="365.5" cy="364.5" r="42.5" fill="#EEEEEE"/>
<circle cx="500.5" cy="364.5" r="42.5" fill="#EEEEEE"/>
<circle cx="635.5" cy="364.5" r="42.5" fill="#EEEEEE"/>
<circle cx="365.5" cy="364.5" r="42.5" fill="#EEEEEE"/>
<circle cx="500.5" cy="364.5" r="42.5" fill="#EEEEEE"/>
<circle cx="365.5" cy="499.5" r="42.5" fill="#EEEEEE"/>
<circle cx="500.5" cy="499.5" r="42.5" fill="#EEEEEE"/>
<circle cx="365.5" cy="634.5" r="42.5" fill="#EEEEEE"/>
<circle cx="500.5" cy="634.5" r="42.5" fill="#EEEEEE"/>
<circle cx="635.5" cy="499.5" r="42.5" fill="#EEEEEE"/>
<circle cx="635.5" cy="634.5" r="42.5" fill="#EEEEEE"/>
</g>
<g filter="url(#filter1_f_24_144)">
<line x1="364.235" y1="358.097" x2="634.235" y2="641.097" stroke="#D3D3D3" stroke-opacity="0.65" stroke-width="20"/>
</g>
<g filter="url(#filter2_f_24_144)">
<line x1="634.071" y1="372.071" x2="364.071" y2="642.071" stroke="#D3D3D3" stroke-opacity="0.65" stroke-width="20"/>
</g>
<defs>
<filter id="filter0_f_24_144" x="288" y="287" width="425" height="425" filterUnits="userSpaceOnUse" color-interpolation-filters="sRGB">
<feFlood flood-opacity="0" result="BackgroundImageFix"/>
<feBlend mode="normal" in="SourceGraphic" in2="BackgroundImageFix" result="shape"/>
<feGaussianBlur stdDeviation="17.5" result="effect1_foregroundBlur_24_144"/>
</filter>
<filter id="filter1_f_24_144" x="342" y="336.194" width="314.471" height="326.806" filterUnits="userSpaceOnUse" color-interpolation-filters="sRGB">
<feFlood flood-opacity="0" result="BackgroundImageFix"/>
<feBlend mode="normal" in="SourceGraphic" in2="BackgroundImageFix" result="shape"/>
<feGaussianBlur stdDeviation="7.5" result="effect1_foregroundBlur_24_144"/>
</filter>
<filter id="filter2_f_24_144" x="342" y="350" width="314.142" height="314.143" filterUnits="userSpaceOnUse" color-interpolation-filters="sRGB">
<feFlood flood-opacity="0" result="BackgroundImageFix"/>
<feBlend mode="normal" in="SourceGraphic" in2="BackgroundImageFix" result="shape"/>
<feGaussianBlur stdDeviation="7.5" result="effect1_foregroundBlur_24_144"/>
</filter>
</defs>
</svg>
